<?xml version="1.0" encoding="utf-8"?>
<!-- Svg Vector Icons : http://www.onlinewebfonts.com/icon -->
<!DOCTYPE svg PUBLIC "-//W3C//DTD SVG 1.1//EN" "http://www.w3.org/Graphics/SVG/1.1/DTD/svg11.dtd">
<svg version="1.1" xmlns="http://www.w3.org/2000/svg" xmlns:xlink="http://www.w3.org/1999/xlink" x="0px" y="0px" viewBox="0 0 1000 1000" enable-background="new 0 0 1000 1000" xml:space="preserve">
<metadata> Svg Vector Icons : http://www.onlinewebfonts.com/icon </metadata>
<g><path d="M445.2,662.9l-154-138.3L445.2,662.9z"/><path d="M445.2,695.6c-7.8,0-15.6-2.7-21.8-8.4L269.4,549c-13.4-12.1-14.5-32.7-2.5-46.1c12.1-13.4,32.7-14.5,46.1-2.5l154,138.3c13.4,12.1,14.5,32.7,2.5,46.1C463.1,692,454.2,695.6,445.2,695.6z"/><path d="M708.8,336.7L444.9,663.3L708.8,336.7z"/><path d="M444.8,696c-7.2,0-14.5-2.4-20.5-7.3c-14-11.3-16.2-31.9-4.8-45.9l263.9-326.7c11.3-14,31.9-16.3,45.9-4.8c14,11.3,16.2,31.9,4.8,45.9L470.3,683.9C463.8,691.9,454.4,696,444.8,696z"/><path d="M500,990c-130.9,0-253.9-51-346.5-143.6C61,753.9,10,630.9,10,500c0-130.9,51-253.9,143.5-346.4C246.1,61,369.1,10,500,10c130.9,0,253.9,51,346.5,143.5l0,0l0,0C939,246.1,990,369.1,990,500c0,130.9-51,253.9-143.5,346.5C753.9,939,630.9,990,500,990z M500,75.3c-113.4,0-220.1,44.2-300.3,124.4C119.5,279.9,75.3,386.6,75.3,500c0,113.4,44.2,220.1,124.4,300.3c80.2,80.2,186.9,124.4,300.3,124.4c113.4,0,220.1-44.2,300.3-124.4c80.2-80.2,124.4-186.8,124.4-300.3c0-113.4-44.2-220.1-124.4-300.3l0,0C720.1,119.5,613.4,75.3,500,75.3z"/></g>
</svg>